<?xml version="1.0" encoding="utf-8"?>
<!-- Generator: Adobe Illustrator 25.0.0, SVG Export Plug-In . SVG Version: 6.00 Build 0)  -->
<svg version="1.1" id="Layer_1" xmlns="http://www.w3.org/2000/svg" xmlns:xlink="http://www.w3.org/1999/xlink" x="0px" y="0px"
	 viewBox="0 0 475 369" style="enable-background:new 0 0 475 369;" xml:space="preserve">
<style type="text/css">
	.st0{fill:#055B4A;}
	.st1{fill:#045B4A;}
	.st2{fill:#BA9B70;}
	.st3{fill:#BD9C72;}
	.st4{fill:#095B4B;}
	.st5{fill:#C19B70;}
	.st6{fill:#0D5C4D;}
	.st7{fill:#E6F4F3;}
	.st8{fill:#20593F;}
	.st9{fill:#135B4E;}
	.st10{fill:#1A6052;}
	.st11{fill:#DBF0EE;}
	.st12{fill:#D5EDEB;}
	.st13{fill:#3D766B;}
	.st14{fill:#C29A6B;}
</style>
<g>
	<path class="st0" d="M130.1,51c0,0.2,0.1,0.4,0.3,0.4c0.3,0.8,0.8,1.4,1.7,1.8l0,0c0.3,1,1,1.8,2.1,2.2l0,0c0.4,1,1,1.8,2.1,2.1
		l0,0c4.2,4.8,9.2,8.9,14.5,12.3c9.4,7.6,19.8,13.5,30.3,19.3c16.3,9,32,18.7,45.6,31.6c8.7,8.1,15.8,17.5,21.4,29.1
		c2.6-7.8,5.1-14.5,8.9-20.8c11.8-19.6,29.8-31.3,49.9-40.6c15.4-7.1,31.7-12.3,47.4-18.6c6.8-2.8,13.6-5.7,19.6-10.2
		c3.3-2.6,6.5-5.4,7.6-9.5c0.9-3.4,2.2-2.3,4.1-1.1c17.1,9.9,34.1,19.7,51.4,29.4c3.1,1.8,3.5,3.3,2.4,6.4
		c-3.4,9.3-9.5,16.5-16.6,23.2c-11.2,6.9-23.2,12.3-36.1,15.7c-22.9,6-46.5,8.8-69.5,14.2c-28.1,6.7-52.5,18.3-65.2,46.4
		c-2.5,1.8-3.5-1.1-3.6-2c-1-7.1-5.2-12.8-9.2-18.3c-3.6-4.8-6.9-10.6-13.9-11.9c-7.6-5.9-15.4-11.5-23.6-16.4
		c-23.4-13.9-48.3-25.4-71.3-40c-10-6.8-19.4-14.1-26.8-23.8c-6.3-8.3-10.1-17.4-11-27.9c-0.2-1.7-0.4-3.4,0.6-5
		c6.2-10,12.5-20,19.5-31.4c0.1,9.7,0.9,17.7,5.2,25c0.7,2.9,2.2,5.3,4.1,7.4c0,0.3,0.1,0.5,0.4,0.7C124.1,44.6,126.8,48.1,130.1,51
		z"/>
	<path class="st1" d="M237.4,197.6c-9.1,2.3-17.5,5.8-25.2,12.1c-4-17.7-18.6-19.9-32.3-22.4c-21.1-3.9-42.7-4.3-64.1-6.3
		c-35.8-3.4-71.2-9.1-104.9-22.3c-1.1-0.4-2.2-0.9-3.9-1.8c5.1-4,9.7-7.6,14.3-11.3c9.2-7.2,18.4-14.5,27.5-21.8
		c1.4-1.1,2.7-2.7,4.7-2.9c6.5,2.3,13.3,3.2,20.1,4.2c24.9,3.8,50.1,5.6,74.9,10.4c21.4,4.2,42,10.7,59.4,24.4
		C220.8,170.2,231.4,182.3,237.4,197.6z"/>
	<path class="st2" d="M237.4,197.6c-6.1-15.4-16.6-27.4-29.4-37.4c-17.4-13.7-38-20.2-59.4-24.4c-24.8-5-49.9-6.6-74.9-10.4
		c-6.8-1-13.6-2-20.1-4.2c8.9-8.6,19.5-15.2,28.2-23.9c7.9-7.9,15.7-10.3,26.1-5.3c5.3,2.5,11.6,3,17.4,4.2c1.5,0.3,3.3,1.1,4.8-0.4
		c23,14.8,47.9,26.1,71.3,40c8.3,5,16.1,10.5,23.6,16.4c6.1,6.9,13.2,13,17.7,21.3c3.3,6.2,5.2,12.8,6.9,20.9
		c1.3-4.3,2.9-7,2.1-10.2c12.7-28.2,37.1-39.7,65.2-46.4c23-5.5,46.5-8.3,69.5-14.2c12.9-3.4,24.9-8.8,36.1-15.7
		c12.6,7.6,25.3,15.3,37.4,23.7c-13.6,4.1-27.2,8.3-41.4,10.4c-23.7,3.7-47.5,7.3-71.1,11.3c-17.3,2.9-34.5,6.8-50.1,15.1
		c-13.9,7.3-24.9,17.2-26.2,34.4C260.5,197.6,249.1,196.4,237.4,197.6z M213.6,150.1L213.6,150.1c-0.4-3-2.4-4.6-4.8-6.2
		c-7-4.3-13.7-9.2-20.8-13.1c-4.3-2.4-8.4-7.2-14.5-3.6c-1.1,0.6-6.1,1.4-2.8-3.3c1.2-1.8,0-2.3-1.5-2.7c-6.3-1.8-12.8-3.2-16.6-9.4
		c-0.3-0.5-1.5-0.6-2.3-0.9c-4.8-1.7-10.1-2.3-13.5-7c-1.1-1.7-3.5-2.5-5.4-3.6c-3.9-2.5-8.1-0.7-12-2.2c-5.7-2.2-11.3-4.3-17.6-3.7
		c-1.4,0.1-3.2-0.2-3.8-1.2c-2.8-5.1-4.8-1.8-7.3,0.3c-3.2,2.8-4.7,7.1-8.9,9c-4.2,2-9.5,3-9.9,9.2c-0.1,1.2-1.7,0.9-2.5,1.3
		c-3,1.8-7.3,1.3-9.5,5.9c6.1-0.2,11.1,1.8,16.1,4.2c0.8,0.4,2.4,0.4,3-0.1c3.7-3.2,6.7-0.5,9.7,1c1.7,0.8,3.1,1.4,4.8,1.2
		c8.7-0.8,17,3.5,25.8,2.1c0.3,0,0.7,0,1,0.1c9.6,3.7,20.1,2.9,30,5.8c4.6,1.3,10.3-0.8,14.2,3.9c0.6,0.7,2.6,0.3,3.9,0.4
		c1.5,0.1,3,0,4.4,0.7c5.4,2.7,11.1,4.7,16.4,7.5c4.5,2.5,9.7,3.5,13.9,6.7c9.5,7.2,18.8,14.3,25.4,24.7c3.4,5.4,7.8,10.3,12.6,14.8
		c0.8,0.8,1.5,1.2,2.7,1c0.8-0.1,1.4-1.1,1.2-1.2c-3.2-2.1-0.1-5-1.1-7.6c-1.3-3.4-3.6-6.4-4.8-9.5c-4-10.1-12.4-15.9-19.7-22.8
		C218.1,150.6,216,149.7,213.6,150.1z"/>
	<path class="st3" d="M464.4,141.8c5.3,6.9,7.3,15.4,11.2,22.9c1.3,2.6-1.2,2.6-2.8,3.1c-13.2,4.5-27,6.1-40.9,7
		c-29.5,1.9-59,0.2-88.5,1.1c-11.7,0.4-23.2,1.8-34.5,5.5c-14.5,4.7-23.7,14-24.3,30.6c-3.6-2.3-6.8-4.2-9.3-7.4
		c-0.1-6.6,2.3-12,7-16.8c4.2-4.3,9.6-7,14.2-10.7h0.3l0.2-0.2c23.9-9.6,49.2-13.2,74.6-16.8c23.7-3.4,47.7-6.2,71-12.2
		C450,146.1,457.2,143.9,464.4,141.8z"/>
	<path class="st4" d="M343.7,261.5c0.3,0.1,0.6,0,0.9-0.2c6.7-1.7,13.1-1.8,18.6,3.3c0.7,1,1.3,2.1,2.1,3.1c0.7,1.8,1.3,3.5,2.1,5.2
		l0,0c1.2,6.5,1.1,13,1.1,19.6l0,0c-20.9,0-42,0-62.9,0.1c-2.2-1.7-4.1-0.2-6.1,0.3c-9,0-18,0-26.9,0c-1.3,0-2.7,0-4,0
		c-9.6-0.1-19.3-0.3-28.9-0.4l0,0c0.1-2.2-0.4-4.4,0.4-6.5l0.2-0.2c0.4-0.5,0.8-1,1.2-1.5l0,0c6.7-6.8,13.8-13.2,20.1-20.4
		c4.4-5.1,9.9-3.9,14.6-2.9c3.6,0.8,0.8,5.9,1.5,9c0.2,0.6,0,1.3,0,2.1c0,15.3,0,15.3,15.4,14.2c0.5,0,1,0,1.5-0.1
		c2.4-0.5,0.3-1.8,0.4-2.7c0.1-1.7,0.3-3.4-2.3-3.1l0,0c0.9-3.2-1.2-3.8-3.6-4.4c-0.3-0.1-0.4-0.3-0.4-0.6c0.5-3.1-1.3-4.5-3.8-5.7
		l-0.3,0.1c0.1-2.1,0.2-4.1,0.3-6.3c2.4-1.8,5.1-2.2,8-2.2c5.8,0.2,11.6,0,17.3,0c11.6,0,11.6,0,11.6,11.3c-0.3,0.3-0.6,0.7-0.8,1
		c-3.3-0.5-3.4,1.7-3.3,3.9c-1.3,2.9-4.4,4.6-5.5,8.3c5.1,0,9.7-0.3,14.2,0.1c3.9,0.3,5.3-0.7,4.4-4.7c-0.6-3.2,0.6-6.4,1.3-9.6l0,0
		C335.2,267.5,339.2,264.2,343.7,261.5z M311.4,275.7L311.4,275.7c2.2,0.2,2.3-1.2,2.3-2.8c-0.3-2.1-2.2-0.8-3.1-1.4
		c-3.4-1.8-6.9-3.3-10.3,0c-1.7,0.9-4.1-1.1-5.2,1.5c-0.5,4.1,2.1,6.6,4.8,8.9c1.8,1.5,3.5,3.6,6.2,2.3c2.4-1.2,3.9-3.2,3.5-6.2l0,0
		C311,277.9,311.6,277.2,311.4,275.7z M355.1,282.5c0-6-2.8-10.6-6.5-10.4c-3.4,0.2-5.3,2.4-5.3,5.8c-0.1,3.6,5,7.3,9.6,7.7
		C356.2,285.9,354.6,283.7,355.1,282.5z M256,285.8c10.1,0.6,11-0.6,8.1-9.1C261.6,279.6,259.1,282.3,256,285.8z"/>
	<path class="st5" d="M361.2,33.6c0,13.5-10.4,23.7-23.9,23.6c-13.3-0.1-23.7-10.7-23.6-24c0.1-13.6,10.5-23.7,24.6-23.5
		C351.2,9.8,361.3,20.2,361.2,33.6z"/>
	<path class="st6" d="M375.6,278c0-0.3,0-0.7,0-1c0.4-3.8,0.4-7.5,0-11.3c0-2.1,0-4.1,0-6.2s0-4.1,0-6.2c-0.4-3.7,1.5-5.6,5-6.6
		c2.4-0.7,4.6-2,7.8-3.3c0,8.6,0,16.6,0,24.6c0,4.8,0,9.6,0,14.4c0,1.8-0.1,3.6,2.5,3.6c10.4,0,20.8,0,31.6-1
		c-2.3-1.2-4.5-2.4-6.8-3.6c-5.9-3.3-10.8-7.7-15.4-12.7c-2.8-3-3.2-5.3-0.5-8.7c4.7-6,4.4-6.2,9.1-0.3c5.2,6.4,10.9,12.3,18.2,16.5
		c2.1,2.1,4.5,3.4,7.3,4.2l0,0c3.2,2.2,6.6,3.6,10.4,4l0,0c1.9,1.4,4.1,1.7,6.3,1.8c3,0.1,2.6,2,2.7,3.8c0,2.3-1.1,2.8-3.2,2.8
		c-23.5,0-46.9-0.1-70.5,0c-3.3,0-4.1-1.7-4.1-4.4C375.8,284.8,375.7,281.4,375.6,278z"/>
	<path class="st5" d="M289,77.7c-10.6-0.1-19.6-9.3-19.6-20c0-10.8,9.5-20.2,20.2-19.9c10.6,0.3,19.7,9.6,19.6,20
		C309.1,68.7,299.8,77.9,289,77.7z"/>
	<path class="st5" d="M348.7,224.6c-11.2,0-19.6-8.3-19.6-19.3c0-11.5,8.3-20,19.6-20.1c10.8-0.1,19.8,9,19.8,20.1
		C368.4,216.2,359.7,224.6,348.7,224.6z"/>
	<path class="st1" d="M297.2,177l-0.2,0.2h-0.3c-4.4-1.2-6.9,3.9-11.2,3.7c0.4-2.7,2.3-3.9,3.8-5c10.8-7.6,23.1-11.9,35.7-15.6
		c4.4-1.3,8.9-1.4,13.3-2.6c4.8-1.2,9.6-3.2,14.4-3.2c6.5-0.1,12.7-2.1,19-2.9c4.3-0.5,9.4,0,13.3-1.9c6.9-3.3,14.2-0.9,21.4-3.2
		c5.1-1.7,11-2.6,16.7-3.1c3.6-0.3,7.8-0.4,11.2-2c6.6-2.9,13.7-4,20.5-6c2.7-0.7,5-1.9,7.4,0.2c0.3,0.2,0.3,0.4,0.2,0.7
		c-0.3,3.7-2.3,5.5-6,5.5c-1.1,0-2.5,0-3.5,0.4c-10.4,4.2-21.3,6.6-32.5,8.1c-4.7,0.6-9.7,0.9-14.3,2.2c-8.1,2.2-16.2,3.7-24.7,3.9
		c-5,0.1-10,1.3-14.9,2.4c-7.3,1.5-14.8,3-22.2,3.4c-5.5,0.3-10.9,1.5-15.9,2.9c-8.8,2.4-17.7,4.2-26.3,7.4
		C299.8,173.5,297.8,174.3,297.2,177z"/>
	<path class="st7" d="M170.3,275.9c1,2.1,2.2,4.1,3,6.3c0.5,1.3,1.1,2.1,2.6,1.9c1.2-0.2,1.4-1.2,1.5-2.3c0-0.2,0-0.3,0-0.5
		c0.2-6.2-2.1-13.1,6.3-16.7c-6.1-1-9.6-3.6-11.8-8.8c-2-4.7,0.3-8.6,2.9-10.9c2.8-2.6,7-6.1,11.8-2.8c1.4,0.9,2.9,1.4,4.2,0.6
		c1.9-1.2-0.2-2.2-0.5-3.3c-0.6-2.6,6.1-8.3,9.9-8.6c-0.9,0.7-2,1.4-2.8,2.3c-4.2,3.8-4.7,10.4-1.4,15c3.3,4.4,9.5,5.8,14.2,3.2
		c5.1-2.7,7.2-8.9,5.1-14.1c-2.2-5.4-7-7.3-15.2-6.2c0-1.4,0.8-2.1,2.3-2.2c4-0.5,7.7,1,11.7,1.2c1.1,0.1,1.7,1.1,2,2.2
		c2.2,6,5.5,12.1-0.8,17.6c-0.9,0.8-1.1,2.8,0.1,3.1c5,1.2,3.2,5.1,3.2,7.9c0.2,8.4,0.1,16.8,0,25.2c0,1.7,0.9,3.9-1.9,4.6
		c-0.1-8.6-0.2-17.1-0.2-25.8c0-10.8,0.1-10.6-10.1-6.5c-3.4,1.4-4.5,3.1-4.4,6.7c0.2,7,0,14.1-0.1,21.1l0,0c-2.7,0.1-5.4,0.1-8,0.2
		l-0.3-0.1c0-7.3,0-14.6,0-22.2c-14.1,3.3-15.4,4.7-14.2,16.1c-0.7,7.3-2.3,8.5-9,6.1C169.7,282.7,169.9,279.3,170.3,275.9z
		 M183.4,243.1c-5-0.1-9.2,3.9-9.3,9c-0.1,5.2,3.6,9.3,8.7,9.5c5.5,0.2,9.6-3.7,9.6-9.1C192.4,247.5,188.3,243.2,183.4,243.1z"/>
	<path class="st4" d="M70.2,300.5c0.6,0.1,1.2,0.2,1.8,0.3c3.9,1.5,7.8,2,11.7,0l0,0c6.1-2,6.7-7.1,6.8-12.3c0.2-7.6,0-15.3,0-22.9
		c0.3-0.1,0.4-0.3,0.5-0.7c3.5-1.1,6.9-2.6,10.1-4.5c4.4,1.3,0.8,5.1,2.3,7.2c-0.1,4.2,0.1,8.6-0.3,12.8c-0.4,4.2,0.6,6.5,5.4,5.9
		c0.1,2.1,1.7,2.1,3.1,2c0,0.7,0,1.3,0,2.1c-2.6,1-6.5-2.4-8.1,2.3l0.1-0.1c-4.6,1.8-1.3,5.6-2.1,8.4h0.1c-3.4,0.1-2.1,2.6-2.2,4.3
		c-2,4.3-6.4,5.5-10.1,7.6l-0.4,0.1c-3.1,0.1-6.1,0.5-9.2,0.4c-12.8-0.3-12.9-0.4-13.8-12.7c0.1-0.3,0.2-0.6,0.3-1
		C67.5,300,68.9,300.3,70.2,300.5z"/>
	<path class="st5" d="M271.4,86.6c-0.1,8.7-7.3,15.7-16,15.6c-7.9-0.1-14.9-7.3-15-15.5c-0.1-8.6,7.3-16,15.7-15.8
		C264.5,71.2,271.4,78.3,271.4,86.6z"/>
	<path class="st6" d="M65.5,242.9c0.1-0.2,0.2-0.4,0.3-0.6c0-0.1-0.1-0.2-0.2-0.3h0.1c0.2,0.2,0.4,0.3,0.7,0.5
		c3.6-1.4,7.2-2.9,10.8-4.2c0.2,0.6,0.4,0.9,0.4,1.3c0,14.2,0.1,28.4,0.1,42.6c0,11.1,0,11.1-11.6,10.2l0,0
		c-0.3-1.3-0.8-2.7-0.8-3.9C65.4,273.3,65.4,258.1,65.5,242.9z"/>
	<path class="st8" d="M462.1,135.6c-2.5-2.1-4.7-0.9-7.4-0.2c-6.8,2-13.8,3.2-20.5,6c-3.4,1.4-7.7,1.5-11.2,2
		c-5.8,0.5-11.8,1.4-16.7,3.1c-7.1,2.4-14.5-0.1-21.4,3.2c-3.9,1.9-9,1.3-13.3,1.9c-6.3,0.8-12.5,2.8-19,2.9
		c-4.8,0.1-9.7,2-14.4,3.2c-4.3,1.1-8.9,1.2-13.3,2.6c-12.6,3.7-24.9,7.9-35.7,15.6c-1.5,1.1-3.4,2.3-3.8,5c4.3,0.3,6.8-5,11.2-3.7
		c-4.6,3.7-10,6.4-14.2,10.7c-4.7,4.8-7.1,10.1-7,16.8c-2,0.7-3.2-0.4-4.1-2c1.2-17.1,12.3-27,26.2-34.4
		c15.7-8.1,32.8-12.1,50.1-15.1c23.6-4,47.4-7.6,71.1-11.3c14.1-2.2,27.8-6.3,41.4-10.4C461.3,132.5,461.9,134,462.1,135.6z"/>
	<path class="st9" d="M240.9,323.6c0.5,0,1.1,0,1.7-0.1c1.7,0.1,3.3,0.1,5,0.2l-0.1-0.1c0.9,7.6,0.8,15.4,0.1,23
		c-0.6,7.4-5.9,11.2-14,11c-7.4-0.1-12-4-12.5-11.6s-0.6-15.1,0.1-22.6l-0.1,0.1c2.3,0,4.5,0,6.8,0l-0.1-0.1
		c0.9,3.7,0.3,7.4,0.4,11.2c0.2,4-0.5,8.1,0.6,12.2c0.7,2.8,2.4,4.5,5.3,4.6c3.2,0.1,5.2-1.7,5.8-4.6c0.4-1.8,0.4-3.7,0.5-5.6
		C240.7,335.5,239.9,329.5,240.9,323.6z"/>
	<path class="st10" d="M69.2,323.4c0.3-0.4,0.7-0.8,1-1.3c2.2,1.3,6.8-2.6,7,3.1c0.1,3.1,0,6.1,0,9.3c10.8-4,15.4-0.8,15.4,10.6
		c0,2.8,0.2,5.5,0.2,8.3c-0.4,1.8,0.4,4.3-2.9,4c-2.2-0.2-5.3,1.1-5.3-3c0.1-3.6,0.2-7.2,0.2-10.7c0-2.4-0.4-4.6-3.4-4.7
		c-3.2-0.1-4.1,2-4.1,4.7c0,4.2,0.1,8.6,0.2,12.8c-0.3,0.4-0.7,0.7-1,1.1c-2.1,0-4.1,0-6.2,0c-0.3-0.3-0.6-0.7-0.9-1
		C69.7,345.4,69.8,334.4,69.2,323.4z"/>
	<path class="st9" d="M148.6,332.7c0.4,0.3,0.8,0.7,1.2,1c-0.1,8.7-0.2,17.3-0.2,26c0,7.3,0,7.3-7.3,7.1l-0.1-0.1
		c0-3.7,0-7.3,0-11.1c-8.6,3.5-11,2.9-16.3-3.3l0,0c-0.5-2.9-1.3-5.6-1-8.6c0.7-7.1,6.1-12.6,12.1-10.7
		C141.2,334.2,144.7,332.7,148.6,332.7z M142.2,345.2c0-2.8,0-6.3-4.5-6.5c-4.1-0.2-5.1,3-5.2,6.2c-0.1,3.4,0.8,6.8,5.1,6.9
		C141.2,351.9,142.2,349,142.2,345.2z"/>
	<path class="st9" d="M64.1,350.2c-0.2,0.2-0.3,0.4-0.2,0.7c-0.7,1.1-1.3,2.2-2.1,3.3l0,0c-5.2,4-11,4.1-17.1,2.8
		c-2.1-0.4-3.7-0.9-2.9-4.1c0.8-2.8,1.9-3.2,4.2-2.2c1,0.4,2.4,0.6,3.5,0.6c2.5,0.1,5.7,0.7,6.5-2.6c0.8-3.4-2.1-4.2-4.5-5.2
		c-4.3-1.5-8-3.8-10-8.1l0,0c0.3-8.1,4.1-12,12.2-12.2c2.1,0,4,0.2,6.1,0.3h0.3c3.3,1.1,1.4,3.8,1.8,5.9c-0.2,0.1-0.3,0.3-0.1,0.5
		c-2.3,1.2-4.2-0.7-6.5-0.6s-4.7-0.1-5.7,2.4c-1,3,1.8,3.7,3.6,4.6c1.3,0.6,2.9,0.9,4.3,1.4l0,0C62.5,340.7,65,344.6,64.1,350.2z"/>
	<path class="st10" d="M188.2,340.5c-2.6-3.6-5.5-2.8-8.1-2.2c-1.7,0.4-3.1,1.3-3.9-1.3c-0.9-2.9,0.8-3.1,2.7-3.7
		c10.6-3.4,16.8,0.9,16.9,12c0,3.1-0.1,6.2,0.1,9.3c0.2,2.5-0.9,3.3-2.9,2.8c-3.7-1-7.1-0.2-10.7,0.4c-3.7,0.6-6.7-1.1-8-5
		s0.1-7,3.4-9.4C180.6,341.3,184.1,341.4,188.2,340.5z M188.2,348c0.1-2-1.2-2.2-2.7-2c-2.2,0.3-4,0.9-4.1,3.6c0,1.9,1,2.8,2.9,2.7
		C187.2,352.3,188,350.4,188.2,348z"/>
	<path class="st9" d="M101.2,339.2c-0.3-0.4-0.7-0.8-1-1.3c0.2-1.3-0.5-2.8,0.4-4c0.3,0.1,0.5,0,0.7-0.2c4.8-1.2,9.6-1.7,14.4,0.1
		l0,0c3.2,3,4.2,6.7,4,11c-0.1,3.9,0.2,7.7,0.3,11.7c-0.2,0.2-0.3,0.5-0.2,0.8c-3.1,0.9-6.2-1.7-8.9-0.7c-4.6,1.5-8.8,2.3-11.8-2.3
		c-2.8-4.3-0.8-8,2.6-11.2c0.3-0.1,0.4-0.3,0.4-0.6c2.5-0.5,5-1,7.3-1.4c0.8,0.1,1.9,0.4,2.1-0.6c0.3-1.4-0.8-2-2.1-2.2
		c-2.2-0.5-4.2-0.6-6.2,0.7C102.5,338.9,101.8,339.1,101.2,339.2z M108.3,352.4c2.5-0.3,3.7-1.9,3.9-4.4c0.1-1.7-0.8-2.1-2.2-2
		c-2.4,0.2-4.5,0.7-4.7,3.6C105.2,351.6,106.4,352.3,108.3,352.4z"/>
	<path class="st9" d="M254.7,333.7c0.4-0.3,0.8-0.7,1.2-1c3-1.2,4.8,3.2,7.7,1.5c3.6-2.2,7.1-2,10.7-0.4l0,0
		c0.7,0.7,1.3,1.3,2.1,2.1l0,0c1.8,4.6,1.2,9.4,1.3,14.1c0,7.3,0,7.3-7.3,7.2c0-0.3-0.1-0.6-0.2-0.8c0-4.2,0.2-8.5,0.1-12.8
		c0-2.6-0.7-5-3.9-4.8c-3.1,0-3.9,2.4-4,4.8c-0.1,4.2,0.1,8.5,0.1,12.8c-0.2,0.2-0.3,0.5-0.4,0.8c-2.4,0-4.7,0-7-0.1
		c0-0.3-0.1-0.6-0.2-0.8C254.7,348.9,254.7,341.2,254.7,333.7z"/>
	<path class="st9" d="M231.2,267.7c0.2,0,0.4-0.1,0.5-0.3c1.5-1,3.4-0.2,5-0.9c1.2-0.5,3.5-0.6,2.9-3.3c-1.1-4.2-0.1-7.7,4-9.9
		c4-2.1,7.1-0.2,10.2,2.2l0,0c3.2,9.7-0.3,13.4-11.8,12.5c3.2,8.9,0.4,12.8-8.7,12.2c-3.7-2.1-4.7-5.4-4.1-9.4
		C229.8,269.7,230.4,268.7,231.2,267.7z"/>
	<path class="st7" d="M109.5,275.9c0.8-5.7,3.5-10.2,8.5-13.2c3.9-2.3,4.1-5.4-0.1-7.2c-2.5-1.1-2.3-2.6-2.3-4.3
		c5.2,4.2,7.2,4.3,11.9,0.1c1.3-1.1,1.7-1.1,2.6,0.1c2.8,3.7,6.4,3.4,10.1,1.9c-4.6,4.2-3,5.9,2.3,8.3c5.5,2.6,7.4,8.8,8.1,14.8
		c0.2,1.5,0,3.1,0.1,4.6c0.1,1.1-0.4,2.8,1.2,2.9c1.2,0.1,2.3-1,2.5-2.3c0.3-2.2,1.5-3.7,3.1-5.1c1.9-1.5,1.8-2.9-0.4-3.8
		s-2.4-2.7-2.4-4.6l0.3-0.3c3.4,4.3,7.4,5.1,12,2l0.3,0.4c0.6,1.3,1.2,2.7,2,3.9c-2.8,1.3-5.7,2.6-8.5,3.9l0,0c-6,0.1-5,4.7-5.5,8.4
		c-2.2,0.4-4.3,2.2-6.6,0.1c0.2-5.2-0.3-10.2-2.1-15.2c-3.4-9.6-10.9-13.1-20.8-9.7l0,0c-5.8,1.5-10.1,4.7-12.6,10.2l0,0
		c-1.3,1.1-1.4,2.9-2,4.3C110.7,275.9,110,275.9,109.5,275.9z"/>
	<path class="st11" d="M375.6,278c0.1,3.4,0.2,6.8,0.2,10.2c0,2.8,0.8,4.4,4.1,4.4c23.5-0.1,46.9-0.1,70.5,0c2.1,0,3.2-0.5,3.2-2.8
		c0-2,0.3-3.7-2.7-3.8c-2.2-0.1-4.4-0.3-6.3-1.8c2.1,0,4.1-0.1,6.2,0c3.3,0.1,5.2,1.9,5.2,5.2s-1.9,5.1-5.2,5.2c-4.4,0.1-9,0-13.4,0
		c-1.7,0-3.6-0.6-4,2c-1.3,0-2.8-0.2-4.1-0.1c-4.1,0.6-6.4,3.1-6.2,7.3c0.2,4,2.8,6,6.6,6.3c2.9,0.3,5-0.8,6-3.6
		c1.3-3.6,1.7-6.9-1.7-9.6c3.2-0.3,6.7,5.9,5.2,9.2c-1.9,4.1-10.5,6.9-14.3,4.6c-4.1-2.5-5.2-7.7-2.2-12.5c2.2-3.5,0.1-3.6-2.5-3.6
		c-13.2,0-26.4,0-39.6,0c-1.8,0-4,0.8-5.1-1.4c-2.1-4.4-4.5-2.8-7.1-0.6c0.1-6.5,0.1-13.1-1.1-19.6c3.2,0.6,1.9,3.2,2.1,5
		c0.2,2.4,0.1,4.7,0.1,7.2c0,1.5,0,3.3,2.3,3.2c2-0.1,1.5-1.8,1.9-3.1C374.1,282.7,371.8,279.4,375.6,278z"/>
	<path class="st8" d="M297.2,177c0.6-2.6,2.6-3.5,5.1-4.4c8.6-3.3,17.5-5.1,26.3-7.4c5-1.3,10.3-2.6,15.9-2.9
		c7.4-0.4,14.9-1.9,22.2-3.4c4.8-1,9.9-2.3,14.9-2.4c8.5-0.3,16.5-1.9,24.7-3.9c4.6-1.2,9.6-1.5,14.3-2.2c11.1-1.5,22-3.9,32.5-8.1
		c1-0.4,2.4-0.4,3.5-0.4c3.7,0,5.7-1.8,6-5.5c1.4,1.5,2.2,3.3,2,5.5c-7.2,2.1-14.4,4.3-21.7,6.2c-23.3,6-47.2,8.8-71,12.2
		C346.4,163.8,321.1,167.4,297.2,177z"/>
	<path class="st10" d="M319.9,332.7c0.6,0.5,1.1,1,1.8,1.5c-3.1,7.2-5.9,14.5-8.1,22.1l0,0c-3.8,1.7-7.4,2.7-9.9-2.1l0,0
		c-1.8-5.2-3.5-10.3-5.3-15.5c-2.1-5.8-1.5-6.4,4.5-5.7c0.8,0.1,1.5,0.6,2.4,0.9l0,0c0.5,3.9,1.7,7.6,3.4,11.1
		c2.7-1.4,3.1-3.7,3.2-6.1l0,0C312.7,334.5,314.9,332,319.9,332.7z"/>
	<path class="st9" d="M140.3,253.1c-3.8,1.5-7.3,1.9-10.1-1.9c-0.9-1.2-1.3-1.2-2.6-0.1c-4.7,4.2-6.8,4.1-11.9-0.1l0,0
		c-1.5-3.8-1.4-7.5,2.4-10c3.5-2.4,6.9-1.4,9.6,1.7c1,1.2,1.5,1.3,2.6,0.1c2.6-3.2,6-4,9.6-1.9c3.9,2.4,3.7,6.2,2.5,10
		C141.6,251.8,141,252.4,140.3,253.1z"/>
	<path class="st12" d="M233.2,280.2c9.1,0.6,11.9-3.3,8.7-12.2c11.5,0.9,15.1-2.8,11.8-12.5c4.1,0.9,1.5,4.2,2.3,6.3
		c0.2,0.7-0.2,1.8,0.8,2.3c1,0.4,1.5-0.4,2.1-1c5.1-5.7,11.7-3.3,17.7-3.5c2.5-0.1,2.1,2.3,2.2,3.9c0.2,6.1-0.5,12.3,1,18.4
		c0.4,1.7,1,2.5,2.7,2.4c2.7-0.2,5.5,0.8,7.9-0.7c0.8-0.5-0.3-1.4-0.5-2.3c-0.8-2.5-3.5-4.3-2.9-7.4c0.6,0.5,1.2,0.9,1.9,1.4
		c0,0.3,0.1,0.5,0.4,0.6c0.8,1.8,2.1,3.2,3.6,4.4l0,0c0.3,1.3,1.2,2.2,2.3,3.1c0,0.9,2,2.2-0.4,2.7c-0.5,0.1-1,0-1.5,0.1
		c-15.4,1-15.4,1-15.4-14.2c0-0.7,0.1-1.4,0-2.1c-0.7-3.1,2.1-8.3-1.5-9c-4.6-1-10.2-2.2-14.6,2.9c-6.3,7.2-13.4,13.6-20.1,20.4
		c0.1-2.1-0.3-3-2.9-2.4C236.8,282.3,234.1,283.4,233.2,280.2z"/>
	<path class="st6" d="M47.9,292.6c-0.5,0-1,0-1.5,0c-7.7,0-7.7,0-4.5-7c0.5-1.1-0.3-2-0.5-2.9c-1.5-8.7,4.2-13.9,12.9-12.1
		c2,0.4,2.3,1.7,2,2.9c-0.5,2.2,2,5.4-2,6.5c-2.7,0.7-3.8,3.2-1.3,4.1c3.9,1.4,3.8,4,3.1,6.7c-0.8,3.5-4,1.1-6.1,1.8
		C49.3,292.9,48.6,292.6,47.9,292.6z"/>
	<path class="st7" d="M89.2,312.9c3.7-2.2,8-3.3,10.1-7.6c1.3-1.1,2.1-2.6,2.2-4.3h-0.1c1.8-2.5,1.5-5.5,2.1-8.4l-0.1,0.1
		c8.3-0.1,16.4-0.1,24.7-0.2c2.1,0,4.1,0,6.2,0c21.7,0,43.3,0,65,0c3.1,0,6.2,0,9.3,0c2.8,0,5.5,0,8.3,0c-0.7,3.5-3.6,2.1-5.5,2.1
		c-33.1,0.1-66.2,0.2-99.3-0.1c-5.9-0.1-7.6,2.8-8.6,7.4C101.8,308.8,96.2,313.3,89.2,312.9z"/>
	<path class="st10" d="M409.7,328.9c0.3-0.4,0.7-0.7,1-1.1c1.1,0,2.3,0.1,3.1-0.8c1.5-0.4,2.7-0.2,3,1.7c-1,3.8,0.5,5,4.1,4.1
		c0.1,0.2,0.3,0.3,0.6,0.2c-0.1,2.1,2,4.8-1.7,5.8c-1.5,0.4-3.7-0.2-3.3,2.5c0.5,3.4-2,8.1,1.8,9.7c3.2,1.3,3.4,3,3.7,5.5
		c-0.3,0.4-0.7,0.8-1,1.2c-9,0.2-10-0.3-11.6-6.1c0.3-0.8,0.3-1.5-0.3-2.3c0-1-0.1-2.2-0.1-3.2c0.9-1.3,0.9-2.7,0-4
		c0-0.7,0-1.4,0-2.2c0.1-0.1,0.3-0.3,0.2-0.4c-0.2-0.2-0.4-0.4-0.6-0.6l0,0c0-0.3,0-0.6,0-0.9c1.7-0.4,3.9,0.9,4.8-1.4
		c0.9-2.5-0.6-3.5-2.7-4.4C409.6,331.4,409.8,330,409.7,328.9z"/>
	<path class="st9" d="M344.5,351.4c2,4.8-0.7,5.8-4.8,6.2c-5,0.4-9.4-0.1-13.3-3.4c-2.9-4-2.9-8.6-2.4-13.2c0.4-1,0.9-2,1.3-3h-0.1
		c0.9-1.1,1.9-2.2,2.8-3.3c1.4-0.7,2.8-1.4,4.2-2.1c0.7,0.1,1.3,0.1,2.1,0.2c1.1,1.3,1.1,3,1,4.6c-2.1,0.3-3.5,1.5-4.2,3.5
		c-0.6,0.4-0.6,0.8,0.1,1l0.1,0.1c0.1,0.7,0.4,0.9,1,0.4c1,0,2.1,0,3.1,0c0,1.5,0,3.1,0,4.6c-1.2,0.9-3.9-0.8-3.9,1.8
		c0,1.9,2.1,2.5,3.6,3C338.2,352.9,341.3,351.7,344.5,351.4z"/>
	<path class="st9" d="M164.2,356.4c-0.4,0.4-0.7,0.7-1.1,1.1c-2.1-0.1-4.1-0.1-6.1-0.2c0,0,0.1,0,0,0c-0.6-8.3-0.8-16.4,0-24.7
		l-0.1,0.1c2.4,0.6,5.8-1.1,6.4,3c2.3-1.2,3.8-3.8,6.9-3.2c0.3,0.1,0.7,0.1,1,0.1c-0.7,2.4,2.1,5.8-2.1,7.2
		c-3.9-0.4-5.2,1.9-5.3,5.3C164,348.9,164.1,352.7,164.2,356.4z"/>
	<path class="st9" d="M377.6,348.3c-3,0-4.7-2.1-6.4-4.2c-0.2-2-1-3.9-0.4-6c0.2,0,0.4-0.1,0.6-0.2c2.1,0,4.1,0,6.2,0l0.2,0.2
		c0.2,5.3,5.2,4.2,7.9,6.1l0,0c0.7,0.9,1.4,2,2.3,2.9c0.1,0.4,0.2,0.7,0.2,1.1c0,1.3,0,2.8-0.1,4.1c-0.2,0.3-0.3,0.6-0.2,0.9
		c-1.3,1.2-2.8,2.4-4.1,3.6c-2.8,0.8-5.8,1-8.6,0.6c-2-0.3-4.8,0.4-4.6-3.2c0.3-4.2,3-2.5,5.2-2c0.5,0.1,1,0.2,1.5,0.1
		c1.4-0.1,3.4,0.5,3.5-1.8C380.8,348.7,379.4,348,377.6,348.3z"/>
	<path class="st9" d="M427.3,364.6c0.1-0.3,0-0.6-0.2-0.8c0-1.3,0.8-2,1.9-2.6c5.5-3.3,5.6-4,2.4-10c-0.1-0.6-0.1-1.1-0.2-1.8
		c4.6-1,9.3-2.1,13.9-3.2c-0.5,2-1.1,4-1.7,6l0,0c-0.8,1.7-1.7,3.3-2.5,5c-1.9,3.9-4,7.4-7.9,9.7
		C430.2,368.5,428.1,368.1,427.3,364.6z"/>
	<path class="st7" d="M101.7,343c-3.5,3.1-5.4,6.9-2.6,11.2c2.9,4.5,7.1,3.8,11.8,2.3c2.8-0.9,5.8,1.7,8.9,0.7c-1.2,2-3.2,2.6-5.4,2
		c-2.7-0.8-5.1-1.1-7.7,0.7c-2.6,1.7-9.1-2.1-9.5-5.3c-0.5-3.8-2.8-1.1-4.1-1.3c-0.1-2.8-0.2-5.5-0.2-8.3c0-11.5-4.5-14.6-15.4-10.6
		c0-3.2,0.1-6.3,0-9.3c-0.2-5.7-4.8-1.8-7-3.1c1.9-1.4,4-1,6-0.6c2.2,0.4,4.7,0.9,2.8,4.7c-1.8,3.5-0.1,5,3.9,4
		c4.8-1,11.8,4.3,12,9.3c0.1,1.9,0,3.7,0,5.5C98.1,346.4,98.6,340.7,101.7,343z"/>
	<path class="st7" d="M221.1,323.6c-0.7,7.5-0.6,15.1-0.1,22.6s5.1,11.3,12.5,11.6c8.1,0.2,13.4-3.6,14-11c0.7-7.6,0.8-15.4-0.1-23
		c2.8-0.1,2.3,2,2.3,3.6c0,6,0,12.1,0,18.1c0,7.4-4.3,12.1-11.7,13.3c-3.5,0.6-6.3,2.8-10.5,0.5c-5.2-2.8-7.9-7-8.6-11.9
		c-0.9-6.9-0.2-14-0.2-21C218.8,324.6,219.2,323.5,221.1,323.6z"/>
	<path class="st9" d="M284.8,357.2l-0.2-0.3c0-1.5-0.1-3.1-0.1-4.6c0-6.2,0.1-12.4,0.1-18.6c2.6-1.3,5.1-1.1,7.5,0
		c0,7.5,0.1,15.1,0.1,22.7c-0.4,0.4-0.8,0.7-1.3,1.1C288.9,357.4,286.9,357.3,284.8,357.2z"/>
	<path class="st6" d="M216.7,292.4c-2.8,0-5.5,0-8.3,0c0.2-1.9,1.4-2.2,3-2.1c2.5,0.1,3.3-1,3.3-3.4c-0.1-8,0-16.1,0-24.2
		c0-1.3,0-2.7-1.8-3.3c-4.4-1.5-8.5,1-8.6,5.9c-0.1,5.7,0,11.3,0,17c0,1.5,0.6,3.7-2.3,3.6c0.1-7,0.3-14.1,0.1-21.1
		c-0.1-3.6,1-5.4,4.4-6.7c10.1-4.1,10-4.3,10.1,6.5c0,8.6,0.1,17.1,0.2,25.8C216.8,291.1,216.7,291.7,216.7,292.4z"/>
	<path class="st13" d="M445.1,346.2c-4.6,1-9.3,2.1-13.9,3.2c-0.2-0.1-0.5-0.2-0.7-0.2c-0.8-2.7-1.8-5.4-2.6-7.9
		c2.3-0.4,4.5-0.8,6.8-1.3c1.3,1.9,0.5,5,3.4,6.3c0.6-4.4,3.2-8.1,3.4-12.4c0.2-0.2,0.3-0.4,0.3-0.7c2.5,0,5.1-0.4,8,0.4
		C448.2,337.7,446.7,342,445.1,346.2z"/>
	<path class="st9" d="M352.9,357.5c-0.4-0.4-0.8-0.7-1.2-1.1c0.1-7.2,0.2-14.4,0.3-21.7c2.7,3.1,7.6,1.7,10.2,5.1
		c-2.5,1.5-2.9,4-2.9,6.7c0,3.6-0.2,7.2-0.3,10.7h0.1C356.9,357.3,354.9,357.4,352.9,357.5z"/>
	<path class="st9" d="M434,296.8c3.3,2.7,3.1,6,1.7,9.6c-1,2.8-3.1,3.9-6,3.6c-3.8-0.4-6.4-2.3-6.6-6.3c-0.2-4.1,2.1-6.7,6.2-7.3
		c1.3-0.2,2.7,0,4.1,0.1C433.5,296.8,433.7,296.9,434,296.8z"/>
	<path class="st7" d="M41.5,335.6c2.1,4.3,5.8,6.6,10,8.1c2.4,0.8,5.4,1.8,4.5,5.2c-0.8,3.3-3.9,2.7-6.5,2.6c-1.1,0-2.5-0.1-3.5-0.6
		c-2.5-1-3.4-0.6-4.2,2.2c-0.9,3.1,0.8,3.6,2.9,4.1c6.1,1.2,12,1.2,17.1-2.8c0.1,2.3-1.2,3.6-3.1,4.1c-5.9,1.7-12,1.7-17.7-0.1
		c-3.2-1-1.2-4.4-1.7-6.8c-0.2-1.7,0.2-3.3,2.4-3.1c2.7,0.1,5.5-0.9,7.9,0.9c1.3,1,2.9,1.7,3.8-0.3c0.8-2-0.6-2.4-2.4-2.9
		C44.2,343.9,41.4,340.7,41.5,335.6z"/>
	<path class="st7" d="M119.9,356.4c-0.1-3.9-0.4-7.7-0.3-11.7c0.1-4.3-0.8-8-4-11c5.7-0.5,5.9,3.8,6.6,7.5c2.2,0.1,1.7-1.7,2-2.6
		c2.1-5.8,6-8.1,12.1-7.1c4.1,0.7,8.5-1,12.4,1c-3.8,0-7.4,1.5-11.7,0.2c-6-1.9-11.3,3.6-12.1,10.7c-0.3,3,0.6,5.8,1,8.6
		c-2.5,0.1-1.5-2.7-3.1-3.6C119.9,350.5,124.1,355.1,119.9,356.4z"/>
	<path class="st11" d="M305.4,292.5c20.9,0,42,0,62.9-0.1c-0.9,2.3-3,2-4.8,2c-18.1,0-36,0-54.1,0
		C307.9,294.5,305.8,295,305.4,292.5z"/>
	<path class="st13" d="M335.3,337.4c0.1-1.7,0.1-3.3-1-4.6c2.1,0.1,4,0.1,6.1,0.2c0.4,0.2,0.8,0.4,1.2,0.6c0.9,0.8,1.9,1.5,2.8,2.4
		c3.9,9.4,2.3,11.8-7.5,11.5c-0.5,0-1-0.2-1.5-0.2c0-1.5,0-3.1,0-4.6c1.2-0.6,3.5,0.5,3.8-1.3C339.5,338.8,337.3,337.9,335.3,337.4z
		"/>
	<path class="st7" d="M409.1,346.1c0,1,0.1,2.2,0.1,3.2c-0.1,0.6-0.2,1.2-0.3,1.8c-0.1,0.1-0.3,0.2-0.4,0.4
		c-3.4-1.7-1.2-4.8-1.9-7.2c-0.3-1.3,0.8-3.6-1.3-3.7c-2.3-0.1-2.7,2-2.8,4c-0.2,4,1,8.1-0.8,12c0-5.3-0.1-10.6-0.1-15.9
		c-0.1-7.4-0.1-7.4-7.2-7.7c0-1.3-0.1-2.8-0.1-4.1c2.2,1.4,4.3,1.4,6.6,0.2c2.1,6.9,5.2,1.3,7.9,0.7c0.5,1.7,0.2,3-1.4,3.8
		c-0.3-0.1-0.5,0.1-0.6,0.4c-0.9,2.4-2.3,4.8,2.1,5.1l0,0c0.1,0.3,0.3,0.7,0.4,1c0,0.7,0,1.4,0,2.2C409,343.3,409,344.7,409.1,346.1
		z"/>
	<path class="st12" d="M66.1,292.3c11.6,0.9,11.6,0.9,11.6-10.2c0-14.2,0-28.4-0.1-42.6c0-0.3-0.2-0.6-0.4-1.3
		c-3.6,1.4-7.2,2.9-10.8,4.2c1.7-4.1,5.8-4.4,9.2-5.5c3.3-1,3.2,2.1,3.2,4.3c0,14.1,0,28.2,0,42.3c0,1.8-0.2,3.5,0.3,5.2
		c1.7,5.2-1,6.3-5.2,5.8C71.2,294.1,67.7,296.3,66.1,292.3z"/>
	<path class="st7" d="M142.2,251.1c1.2-3.8,1.3-7.6-2.5-10c-3.5-2.2-6.9-1.3-9.6,1.9c-1,1.3-1.5,1.2-2.6-0.1c-2.7-3.1-6-4-9.6-1.7
		c-3.7,2.5-3.8,6.1-2.4,10c-4.1-2.6-2-6.2-1.4-9.4c0.7-4.8,5.7-3.7,7.8-3.4c6,0.6,12,0.2,17.8,0.6c2.1,0.1,4.8,0.6,4.3,3.2
		C143.7,245,147.8,249.3,142.2,251.1z"/>
	<path class="st7" d="M292.2,333.7c-2.5-1.1-5.1-1.3-7.5,0h-0.4h-0.4v-0.1c-0.3-2.1-0.6-4.1-0.9-6.2c0.5,0,1-0.1,1.5-0.1
		c0.7,1.5,2.1,2.3,3.6,2.7c0.5,0,1,0.1,1.7,0.1c1-1,2.2-2.1,3.2-3.1c-0.2,3.8,1.8,4.7,5.3,4.6c2.4,0,5.9-2.2,7.1,2.2
		c-0.7-0.3-1.5-0.8-2.4-0.9c-6.2-0.7-6.6-0.1-4.5,5.7c1.9,5.2,3.5,10.3,5.3,15.5c-3.3-0.9-3.7-4-4.2-6.6c-0.6-3.1-2.6-5.5-3.2-8.5
		c-0.3-1.4-1.4-2.3-3.1-2.3C292.9,335.8,293.3,334.5,292.2,333.7z"/>
	<path class="st11" d="M332.4,271.8c-0.7,3.2-2,6.4-1.3,9.6c0.7,4-0.6,5.1-4.4,4.7c-4.5-0.3-9.2-0.1-14.2-0.1c1-3.6,4.2-5.4,5.5-8.3
		c1.4-1,2.5-2.4,3.3-3.9c0.3-0.3,0.6-0.7,0.8-1c0.6-0.4,1.2-0.9,1.9-1.3c1,3.8-2.2,5.4-4,7.6c-1,1.1-2.5,2.1-1.7,3.9
		c0.7,1.7,2.3,1.1,3.6,1.1c1.5,0.1,3.1-0.1,4.6,0c3.9,0.3,4.6-2.1,3.3-4.7C327.7,275.6,329.6,273.8,332.4,271.8z"/>
	<path class="st7" d="M324,340.9c-0.5,4.6-0.5,9.2,2.4,13.2c-6.6-1.1-3.4-7-5.1-10.9c-2.6,2.3-3.8,4.7-3.5,7.9
		c0.2,2.9-0.9,5-4.3,5.1c2.3-7.5,5.1-14.9,8.1-22.1c0.6,1.9,3.6,1.4,3.7,3.8h0.1C323.8,338.5,324,339.8,324,340.9z"/>
	<path class="st7" d="M240.9,323.6c-0.9,6-0.2,11.9-0.4,17.8c-0.1,1.9-0.1,3.7-0.5,5.6c-0.6,3-2.6,4.7-5.8,4.6
		c-3-0.1-4.5-1.9-5.3-4.6c-1.1-4-0.4-8.1-0.6-12.2c-0.2-3.7,0.4-7.5-0.4-11.2c3.2,4.8,0.8,10.2,1.3,15.4c0.2,3,0.4,5.7,2.3,8.1
		c1.8,2.2,2.6,3.9,5.2,0c4.3-6.4,3.3-12.8,1.9-19.4C237.8,324.9,239.4,324.5,240.9,323.6z"/>
	<path class="st12" d="M335.3,347.1c0.5,0.1,1,0.2,1.5,0.2c9.9,0.4,11.5-2.1,7.5-11.5c3.3,2.3,4.6,9,2.4,11.7
		c-1,1.1-2.2,2.1-2.3,3.8c-3.1,0.2-6.3,1.4-9.5,0.4c-1.7-0.5-3.6-1.1-3.6-3C331.4,346.3,334.1,348,335.3,347.1z"/>
	<path class="st7" d="M427.9,341.1c0.8,2.7,1.8,5.4,2.6,7.9c-3.2-0.2-2.4-3.2-3.4-5c-1.2-2-1.9-4.5-5-4.2c-1.8,0.1-3.2,1-3,2.8
		c0.3,2.6-2,5.9,2,7.5c3.4,1.5,2.3,3.8,1,6.2c-0.3-2.5-0.5-4.1-3.7-5.5c-3.7-1.5-1.2-6.4-1.8-9.7c-0.4-2.7,1.7-2.1,3.3-2.5
		c3.6-0.9,1.5-3.7,1.7-5.8c1.2,0,2.5,0,3.7-0.1c-0.4,2.4,0.5,4.3,1.9,6.2C427.2,339.8,427.1,340.6,427.9,341.1z"/>
	<path class="st7" d="M154.6,267.9c-3.8-4.4-1.5-11.2,4.3-12.5c8.1-1.8,12.8,2.8,12.5,10.3c-0.1,3.1-1.1,4.4-4.1,4.2l-0.3-0.4
		c2.1-3.2,3-6.5,0.3-9.9c-2-2.4-4.5-3-7.3-2.3c-4.2,0.9-5.6,3.9-5,10.2L154.6,267.9z"/>
	<path class="st7" d="M445.1,346.2c1.5-4.2,3.1-8.5,4.6-12.7c-3-0.9-5.6-0.5-8-0.4c-1.1-6.2,3.6-3,5.8-3.3c4-0.5,4.5,3,4.1,5.4
		c-0.9,4.8-2.6,9.6-4.3,14.2c-0.5,1.3-1.8,3-3.8,2.8C444,350.1,444.6,348.1,445.1,346.2z"/>
	<path class="st11" d="M262.4,356.4c0-4.2-0.2-8.5-0.1-12.8c0.1-2.6,0.9-4.8,4-4.8c3.2,0,3.9,2.4,3.9,4.8c0.1,4.2-0.1,8.5-0.1,12.8
		c-2.2-0.4-1.9-2.2-1.9-3.6c0-2.4,0-4.8,0-7.2c0-1.4,0.3-3.4-2-3.4c-2.4-0.1-2.1,1.8-2.2,3.3c0,2.6,0,5.2,0,7.7
		C264.2,354.5,264.3,356,262.4,356.4z"/>
	<path class="st12" d="M90.5,265.6c0,7.6,0.2,15.3,0,22.9c-0.1,5.2-0.8,10.3-6.8,12.3c0-0.3-0.1-0.8,0.1-1
		c7.4-7.1,4.3-16.3,5.1-24.9C89.2,271.8,86.9,268.2,90.5,265.6z"/>
	<path class="st7" d="M64.1,350.2c0.8-5.7-1.7-9.5-6.4-12.3c5.3-0.8,6.5,3.9,9.6,6.8c1.7-3.3,0.4-6.7,0.8-9.9
		c0.5-3.8-1.2-7.8,1-11.5c0.5,11,0.4,22,0.1,33C66.9,354.9,69.8,348.9,64.1,350.2z"/>
	<path class="st7" d="M65.8,300.7c0.9,12.3,1,12.4,13.8,12.7c3,0.1,6.1-0.3,9.2-0.4c-0.3,0.6-0.5,1.7-0.8,1.7
		c-7,0.2-14.1,2.4-20.8-1.5C63.3,310.8,62.7,304.5,65.8,300.7z"/>
	<path class="st13" d="M362.2,339.9c-2.5-3.4-7.4-2-10.2-5.1c-0.1-0.3-0.2-0.7-0.3-1c0.4-0.3,0.8-0.7,1.2-1c1.9,0.9,5-1.1,5.8,2.8
		c0.1,0.4,3.3-3.3,6-2.8c0.8,0.1,1.7,0.4,2.5,0.6c0,1.5,0,3.1,0,4.5C366.4,340.8,363.9,339.5,362.2,339.9z"/>
	<path class="st7" d="M59.9,323.7c-2.1-0.1-4-0.3-6.1-0.3c-8.1,0.2-11.9,4-12.2,12.2c-3.5-2.4-3.2-9.1,1-11.5
		c4.8-2.8,10.4-3.5,16-2.5C59.6,321.7,59.8,322.8,59.9,323.7z"/>
	<path class="st13" d="M394.3,332.8c7.1,0.3,7.1,0.3,7.2,7.7c0,5.3,0.1,10.6,0.1,15.9c-0.4,0.4-0.8,0.8-1.1,1.2
		c-2-0.8-4.5,0.9-6.3-1.2c4.7,0.8,7.1-0.8,6.3-6c-0.3-1.7-0.2-3.4,0-5.2c0.8-5.2-1-7.5-6.4-6.4c-0.2-1.8-0.3-3.4-0.5-5.2
		C393.7,333.4,393.9,333.1,394.3,332.8z"/>
	<path class="st12" d="M253.7,255.5c-3.1-2.4-6.2-4.2-10.2-2.2c-4.1,2.2-5.2,5.7-4,9.9c0.7,2.7-1.5,2.8-2.9,3.3
		c-1.4,0.6-3.4-0.1-5,0.9c-0.7-2.1,0-3.6,2.2-3.7c3.6,0,3.6-2.2,3.5-4.7c-0.1-4.3,2.9-6.9,6.3-7.5
		C247.4,250.8,252.3,249.6,253.7,255.5z"/>
	<path class="st11" d="M109.5,275.9c0.6,0,1.2,0,1.8,0c0.1,0.7,0.1,1.3,0.2,2.1c0,0.3-0.1,0.7-0.1,1c-0.9,2.4,0.3,4.7-0.1,7.1h0.1
		c-1,0.1-2,0.1-3,0.2c-4.6,0.6-5.7-1.7-5.4-5.9c0.4-4.2,0.2-8.6,0.3-12.8c2.5,0.5,1.9,2.5,1.9,4c0.1,3.2,0,6.4,0,9.7
		c0,1.5,0.4,2.8,2.3,2.7c1.5-0.1,1.9-1.2,1.9-2.5C109.4,279.6,109.4,277.8,109.5,275.9z"/>
	<path class="st10" d="M323.8,271.5c-0.6,0.4-1.2,0.9-1.9,1.3c0-11.3,0-11.3-11.6-11.3c-5.8,0-11.6,0.1-17.3,0c-3-0.1-5.7,0.4-8,2.2
		c-0.1-0.3-0.2-0.7-0.4-1c0.1-0.6,0.2-1.2,0.3-2c12.7-0.1,25.4-0.2,38.1-0.3c0.3,0.1,0.6,0.2,0.9,0.2c0.1,3.4,0.1,6.8,0.2,10.2
		C323.9,271,323.8,271.2,323.8,271.5z"/>
	<path class="st7" d="M393.5,333.7c0.2,1.8,0.3,3.4,0.5,5.2c0,5.9,0.1,11.8,0.1,17.5c1.8,2.2,4.2,0.3,6.3,1.2
		c-0.2,0.8-0.3,2.1-0.7,2.3c-2.3,0.8-7.6-2.9-7.6-5.5c-0.1-6.3,0-12.6,0.1-18.8C392.1,334.6,392.7,334,393.5,333.7z"/>
	<path class="st11" d="M362.2,339.9c1.8-0.4,4.2,1,5-2c1.2,0,2.5,0.1,3.7,0.1c-0.6,2.1,0.3,4,0.4,6c-0.7-0.3-1.5-0.6-2.3-1
		c-4.8-2.5-7.5-0.8-7.9,4.6c-0.3,3.3,2.1,7.2-2.1,9.7c0.1-3.6,0.3-7.2,0.3-10.7C359.3,343.9,359.7,341.4,362.2,339.9z"/>
	<path class="st7" d="M77.4,356.4c-0.1-4.2-0.1-8.6-0.2-12.8c0-2.8,0.9-4.8,4.1-4.7c3,0.1,3.4,2.4,3.4,4.7c0,3.6-0.1,7.2-0.2,10.7
		c-3.3-0.9-1.4-3.7-2.1-5.6c-0.6-2.3,1.5-6.4-2-6.4c-4.2,0-1.5,4.2-2.2,6.6C77.9,351.3,79.4,354.1,77.4,356.4z"/>
	<path class="st11" d="M239.4,292.4c9.6,0.1,19.3,0.3,28.9,0.4c0,0.3,0,0.5,0.1,0.8c-9.2,1.8-18.4,0.5-27.5,0.6
		C239.9,294.3,239.5,293.4,239.4,292.4z"/>
	<path class="st10" d="M292.8,327.1c-1,1-2.2,2.1-3.2,3.1c-0.5,0-1-0.1-1.7-0.1c-1.5-0.4-2.9-1.1-3.6-2.7c0.1-1.3,0.3-2.7,0.4-4l0,0
		c3.2-2.1,5.9-1.9,8,1.5c0.1,0.5,0.1,1.1,0.2,1.7C292.7,326.7,292.6,326.9,292.8,327.1z"/>
	<path class="st11" d="M272.3,292.9c9,0,18,0,26.9,0c-0.3,0.4-0.5,1.2-0.8,1.2c-9.4,0.3-18.9,1.2-28.3-0.4
		C270.9,293.4,271.6,293.2,272.3,292.9z"/>
	<path class="st10" d="M400.6,328.9c-2.3,1.3-4.4,1.2-6.6-0.2c-0.3-0.4-0.5-0.8-0.8-1.2c-0.1-0.6-0.1-1.3-0.2-2
		c0.6-1.8,1.9-2.9,3.3-3.8c4.5,0.4,6.4,2.6,4.4,7.1L400.6,328.9z"/>
	<path class="st12" d="M65.5,242.9c-0.1,15.2-0.1,30.3-0.1,45.5c0,1.3,0.5,2.7,0.8,3.9c-2.3-0.2-2.1-1.9-2.1-3.4c0-14.3,0-28.7,0-43
		C64,244.8,64,243.5,65.5,242.9z"/>
	<path class="st7" d="M142.3,366.8c7.3,0.2,7.2,0.2,7.3-7.1c0-8.7,0.1-17.3,0.2-26c1.9,4.6,0.5,9.5,0.8,14.2
		c0.3,5.6,0.2,11.2,0.1,16.8c0,1.3,0.4,3.7-1.8,3.7C146.8,368.6,143.9,370.3,142.3,366.8z"/>
	<path class="st10" d="M386.5,337.7c-0.2,0.4-0.5,0.7-0.7,1.1c-0.3-0.1-0.6,0-0.9,0.1c-0.3-0.1-0.7-0.2-1-0.2c-1.9-1.7-4-0.6-6-0.6
		l-0.2-0.3c-0.2-2-1.2-3-3.1-3.5c3.6-2.5,7.4-2.1,11.3-0.7c0.2,0.2,0.5,0.2,0.8,0.2C386.6,335,386.6,336.4,386.5,337.7z"/>
	<path class="st7" d="M125.9,352.3c5.3,6.3,7.8,6.8,16.3,3.3c0,3.8,0,7.5,0,11.1c-1.1-0.2-2.1-0.9-1.9-2.1c1.1-6.7-3.1-6.9-7.6-6.2
		C127.5,359.5,125.6,357.2,125.9,352.3z"/>
	<path class="st12" d="M377.6,348.3c1.8-0.2,3.2,0.4,3.1,2.3c-0.1,2.3-2.2,1.7-3.5,1.8c-0.5,0-1,0-1.5-0.1c-2.2-0.5-4.8-2.3-5.2,2
		c-0.2,3.6,2.7,2.9,4.6,3.2c2.9,0.5,5.8,0.2,8.6-0.6c0,0.5,0,1,0,1.5c-3.4,0-6.8,0-10.2,0.1c-2.9,0.1-4.4-0.6-4.3-3.9
		c0.1-3.2,0.8-4.7,4.3-4.4C375.2,350.3,377.2,350.8,377.6,348.3z"/>
	<path class="st7" d="M427.3,364.6c0.9,3.6,2.9,3.9,5.9,2.2c3.9-2.3,6.1-5.8,7.9-9.7c0.8-1.7,1.7-3.3,2.5-5
		c0.3,8.4-6,16.7-12.5,16.7C427.6,368.9,426.7,367.4,427.3,364.6z"/>
	<path class="st11" d="M323,260.4c-12.7,0.1-25.4,0.2-38.1,0.3c1.2-1.8,3.1-1.1,4.6-1.1c6.8-0.1,13.6,0,20.3-0.1
		c2.6,0,5.2,0.4,7.7-1.4C319.9,256.2,321.6,258.4,323,260.4z"/>
	<path class="st10" d="M160.8,277.8c2.8-1.3,5.7-2.6,8.5-3.9c0.3,0.7,0.7,1.3,1,2.1c-0.4,3.4-0.6,6.8,0.2,10.2
		c-2,0.2-3.6-0.2-3.2-2.6C168.2,278.1,164.8,277.7,160.8,277.8z"/>
	<path class="st7" d="M157,332.8c-0.9,8.3-0.6,16.4,0,24.7c-0.3-0.1-0.8-0.2-0.9-0.4c-2.1-7.9-2.1-15.9,0-23.8
		C156.2,333,156.7,332.9,157,332.8z"/>
	<path class="st7" d="M441.5,333.7c-0.2,4.3-2.8,7.9-3.4,12.4c-2.9-1.3-2-4.4-3.4-6.3c-0.1-0.3-0.2-0.6-0.3-0.9
		c-0.3-1.8-0.7-3.4-1-5.2C437.4,337.3,437.4,337.3,441.5,333.7z"/>
	<path class="st11" d="M363.2,264.6c-5.5-5.2-11.9-5-18.6-3.3C351,255.3,361.1,257.2,363.2,264.6z"/>
	<path class="st13" d="M433.4,333.7c0.3,1.8,0.7,3.4,1,5.2c-2.5-0.1-5-3.8-7.3,0.1c-1.3-1.9-2.3-3.8-1.9-6.2h-0.1
		c2.7,0.1,5.4,0.3,8,0.4C433,333.5,433.1,333.6,433.4,333.7z"/>
	<path class="st11" d="M150.7,69.6c-5.4-3.5-10.3-7.4-14.5-12.3C143.3,58.8,147.2,63.9,150.7,69.6z"/>
	<path class="st7" d="M57.7,338c-1.4-0.4-3-0.7-4.3-1.4c-2-0.9-4.6-1.7-3.6-4.6c0.8-2.6,3.4-2.4,5.7-2.4c2.2-0.1,4.2,1.8,6.5,0.6
		c-0.8,2.3-2.9,1.2-4.4,1.5c-1.7,0.2-3.4-0.4-5,0.6C52,336.2,57.6,334.5,57.7,338z"/>
	<path class="st7" d="M400.9,328.8c2-4.5,0.1-6.7-4.4-7.1c-0.1-2.7,1.9-2.6,3.5-2.3c2.6,0.5,5.5,6.5,4.3,8.8
		C403.3,330,402.1,329.4,400.9,328.8z"/>
	<path class="st7" d="M431.4,351c3.2,6,3.1,6.6-2.4,10c-1.1,0.6-2,1.2-1.9,2.6c-3.6-1.4-0.3-4.5-0.2-4.5
		C433.1,359,430.3,353.9,431.4,351z"/>
	<path class="st7" d="M311.7,339c0,2.5-0.5,4.7-3.2,6.1c-1.8-3.6-2.9-7.3-3.4-11.1c1.4-0.1,2.2,0.5,2.3,2
		C307.7,338.5,309.6,339,311.7,339z"/>
	<path class="st11" d="M270.5,357.2c7.3,0.1,7.3,0.1,7.3-7.2c0-4.7,0.4-9.6-1.3-14.1c2.6,0.2,2.2,2.2,2.2,3.8
		c0.1,4.4,0.1,8.9,0.1,13.2C278.6,359,276.6,360.1,270.5,357.2z"/>
	<path class="st13" d="M407.3,333.4c1.7-0.8,2-2.2,1.4-3.8c0.3-0.2,0.7-0.5,1-0.7c0.2,1.1-0.1,2.6,1.1,3.2c2.1,0.9,3.6,2.1,2.7,4.4
		c-0.9,2.4-3.2,1-4.8,1.4l0,0C408.6,336.2,408.8,334.5,407.3,333.4z"/>
	<path class="st11" d="M274.4,333.8c-3.6-1.5-7.1-1.8-10.7,0.4c-2.8,1.7-4.7-2.8-7.7-1.5c5.7-2.6,11.5-0.6,17.2-0.8
		C274.1,331.8,274.4,333,274.4,333.8z"/>
	<path class="st12" d="M377.9,338c2.1,0.1,4.1-1,6,0.6c-0.8,2.4,2,3.4,2,5.5C383,342.3,378.1,343.3,377.9,338z"/>
	<path class="st11" d="M343.7,261.5c-4.5,2.7-8.5,6-11.3,10.4C332.6,266,337.4,261.7,343.7,261.5z"/>
	<path class="st11" d="M130.1,51c-3.3-3-6-6.4-8-10.3C125.2,41.2,129.5,46.8,130.1,51z"/>
	<path class="st7" d="M409.5,351.6c1.5,5.8,2.6,6.3,11.6,6.1c-0.6,2.5-1.4,3.3-4.3,2c-3.9-1.8-9-1.9-8.3-8.1
		c0.1-0.1,0.3-0.2,0.4-0.3C409,351.1,409.2,351.3,409.5,351.6z"/>
	<path class="st7" d="M164.2,356.4c-0.1-3.7-0.2-7.5-0.1-11.2c0-3.4,1.3-5.7,5.3-5.3C164,344.3,166,350.9,164.2,356.4z"/>
	<path class="st7" d="M103.2,338.8c2-1.3,4-1.2,6.2-0.7c0,0.9,0,1.9,0,2.9c-2.5,0.5-5,1-7.3,1.4c-0.3-0.8-0.6-1.7-0.9-2.5
		C102,339.9,102.8,339.7,103.2,338.8z"/>
	<path class="st11" d="M292.2,333.7c1,0.8,0.8,2.1,0.9,3.1c-0.8,6.5,1.8,13.1-0.8,19.5C292.2,348.9,292.2,341.2,292.2,333.7z"/>
	<path class="st11" d="M367.1,333.3c-0.8-0.2-1.7-0.5-2.5-0.6c-2.7-0.4-5.9,3.3-6,2.8c-0.8-3.9-3.9-1.9-5.8-2.8
		C357.7,331.4,362.5,330.2,367.1,333.3z"/>
	<path class="st11" d="M292.8,324.8c-2.2-3.4-4.8-3.6-8-1.5c-0.2-2.6,1.4-3.7,3.5-3.9c2.8-0.3,4.3,1.3,4.7,3.9
		C292.9,323.9,292.8,324.3,292.8,324.8z"/>
	<path class="st7" d="M303.6,354.1c2.5,4.7,6.1,3.7,9.9,2.1c-0.4,2.7-2.2,5-4.7,3.8C306.5,359.1,302.1,358.9,303.6,354.1z"/>
	<path class="st7" d="M319.9,332.7c-5-0.7-7.2,1.9-8.1,6.3c-0.3-3.6-0.7-6.8,3.9-8.6C318.6,329.4,319.4,330.2,319.9,332.7z"/>
	<path class="st7" d="M171.3,332.7c-0.3,0-0.7,0-1-0.1c-3.1-0.6-4.7,2-6.9,3.2c-0.6-4.1-4.1-2.4-6.4-3
		C161.7,330.9,166.5,331,171.3,332.7z"/>
	<path class="st11" d="M254.7,333.7c0,7.5,0,15.2,0,22.7c-2-5.4-0.4-11-0.9-16.5c0-1.4,0-2.8,0-4.2
		C254.1,335,254.4,334.4,254.7,333.7z"/>
	<path class="st11" d="M351.6,333.7c0.1,0.3,0.2,0.7,0.3,1c-0.1,7.2-0.2,14.4-0.3,21.7C350.3,348.9,350.3,341.2,351.6,333.7z"/>
	<path class="st11" d="M375.6,265.6c0.4,3.8,0.4,7.5,0,11.3C372.7,273.4,372.7,268.5,375.6,265.6z"/>
	<path class="st11" d="M324.1,270.8c-0.1-3.4-0.1-6.8-0.2-10.2C326.9,263,327,267.8,324.1,270.8z"/>
	<path class="st12" d="M101.2,260.4c-3.2,2-6.6,3.4-10.1,4.5C93.6,261.7,96.4,259,101.2,260.4z"/>
	<path class="st7" d="M115.6,333.8c-4.7-1.9-9.6-1.3-14.4-0.1c0.2-1.8,1.5-1.9,3-2c3.2-0.2,6.4,0.3,9.6-0.5
		C115.9,330.6,115.4,332.6,115.6,333.8z"/>
	<path class="st11" d="M385.9,333.6c-3.9-1.4-7.7-1.9-11.3,0.7c-0.4,0-0.7,0-1.1,0c-0.1-2.3,1.3-2.8,3.3-2.8c3.1,0.1,6.1,0,9.2,0
		C385.9,332.4,385.9,333,385.9,333.6z"/>
	<path class="st11" d="M444.6,284.3c-3.8-0.4-7.2-1.9-10.4-4C438.5,279.5,441.9,281.1,444.6,284.3z"/>
	<path class="st11" d="M121.7,40c-2-2.2-3.4-4.6-4.1-7.4C121.7,33.5,122.1,36.5,121.7,40z"/>
	<path class="st13" d="M373.4,334.3c0.4,0,0.7,0,1.1,0c1.9,0.5,2.9,1.5,3.1,3.5c-2.1,0-4.1,0-6.2,0
		C371.2,336.2,372.7,335.5,373.4,334.3z"/>
	<path class="st7" d="M332.3,332.7c-1.4,0.7-2.8,1.4-4.2,2.1c-0.8-0.2-1.9-0.1-2.3-0.6c-0.8-0.9,0.4-1.2,0.9-1.9
		c1.7-2,3.7-0.5,5.6-0.6C332.3,332.1,332.3,332.4,332.3,332.7z"/>
	<path class="st11" d="M434.3,280.3c-2.8-0.7-5.3-2.2-7.3-4.2C430.4,275.7,433.1,276.6,434.3,280.3z"/>
	<path class="st7" d="M227.9,323.7c-2.3,0-4.5,0-6.8,0C223.1,320.3,225.7,320.3,227.9,323.7z"/>
	<path class="st12" d="M239.9,285.9c-0.9,2.2-0.4,4.3-0.4,6.5c-3.3-0.7-1.9-3.3-2-5.3C237.4,285.6,238.6,285.3,239.9,285.9z"/>
	<path class="st11" d="M284.6,262.5c0.1,0.3,0.2,0.7,0.4,1c-0.1,2.1-0.2,4.1-0.3,6.3C281.7,267.4,281.7,265,284.6,262.5z"/>
	<path class="st7" d="M421,332.7c-3.6,0.8-5.2-0.4-4.1-4.1C419.3,328.9,420.7,330.2,421,332.7z"/>
	<path class="st7" d="M62,329.6c-0.2-2.1,1.5-4.7-1.8-5.9c1.4-0.2,3.3-0.8,3.6,1.4C64.1,326.9,64.8,329.1,62,329.6z"/>
	<path class="st7" d="M433.1,333.2c-2.7-0.1-5.4-0.3-8-0.4C427.9,331.2,430.8,327.6,433.1,333.2z"/>
	<path class="st7" d="M383.8,358.4c0-0.5,0-1,0-1.5c1.3-1.2,2.8-2.4,4.1-3.6C389,356.9,388.1,359,383.8,358.4z"/>
	<path class="st12" d="M83.7,300.8c-3.9,2.1-7.7,1.5-11.7,0C75.9,300.8,79.8,300.8,83.7,300.8z"/>
	<path class="st11" d="M375.6,253.2c0,2.1,0,4.1,0,6.2C372.5,257.4,372.5,255.3,375.6,253.2z"/>
	<path class="st7" d="M157,357.3c2.1,0.1,4.1,0.1,6.1,0.2c-1.1,0.6-2.4,1.2-3.5,2C156.6,361.4,157.1,359,157,357.3z"/>
	<path class="st10" d="M288.7,275.3c-0.6-0.5-1.2-0.9-1.9-1.4c0-0.2-0.1-0.4-0.3-0.5c-0.6-0.8-1.2-1.7-1.9-2.5
		c0.1-0.4,0.1-0.8,0.2-1.2C287.4,270.8,289.2,272.2,288.7,275.3z"/>
	<path class="st7" d="M247.5,323.7c-1.7-0.1-3.3-0.1-5-0.2C244.3,320.4,245.9,320,247.5,323.7z"/>
	<path class="st11" d="M352.9,357.5c2.1-0.1,4-0.1,6.1-0.2c-0.2,1.1,0.8,3.6-2.1,2.1C355.6,358.7,354.2,358.2,352.9,357.5z"/>
	<path class="st11" d="M255,357.2c2.4,0,4.7,0,7,0.1C259.7,358.1,257.4,360.6,255,357.2z"/>
	<path class="st7" d="M388.2,352.3c0-1.3,0-2.8,0.1-4.1C391.1,349.6,391.1,350.9,388.2,352.3z"/>
	<path class="st7" d="M284.5,352.3c0,1.5,0.1,3.1,0.1,4.6c-0.6,0.2-1.2,0.3-1.9,0.5l0,0C283.1,355.7,281.5,353.2,284.5,352.3z"/>
	<path class="st7" d="M253.9,335.8c0,1.4,0,2.8,0,4.2C251,338.6,251,337.1,253.9,335.8z"/>
	<path class="st12" d="M332.3,332.7c0-0.3,0-0.6,0-0.9c2.7,0.4,5.8-1.4,8,1.3c-2.1-0.1-4-0.1-6.1-0.2
		C333.6,332.8,333,332.7,332.3,332.7z"/>
	<path class="st11" d="M367.3,272.9c-0.7-1.8-1.3-3.5-2.1-5.2C368.6,268.4,367,271,367.3,272.9z"/>
	<path class="st7" d="M413.9,326.9c-0.9,0.8-2,0.8-3.1,0.8C411.2,325.1,412.2,324.7,413.9,326.9z"/>
	<path class="st11" d="M284.8,357.2c2.1,0.1,4.1,0.2,6.2,0.3C288.8,358.9,286.8,359.2,284.8,357.2z"/>
	<path class="st7" d="M292.8,324.8c0.1-0.5,0.2-1,0.2-1.4c0.8,0.2,1.8,0.3,1.9,1.3c0.1,1.4-0.9,1.7-2,1.8
		C292.9,326,292.8,325.3,292.8,324.8z"/>
	<path class="st7" d="M70.2,357.4c2.1,0,4.1,0,6.2,0C74.3,359,72.3,359,70.2,357.4z"/>
	<path class="st12" d="M70.2,300.5c-1.3-0.3-2.8-0.5-4.1-0.8C67.8,298.1,69.3,297.9,70.2,300.5z"/>
	<path class="st11" d="M284.7,323.4c-0.1,1.3-0.3,2.7-0.4,4c-0.5,0-1,0.1-1.5,0.1C282.9,325.9,282,323.8,284.7,323.4z"/>
	<path class="st7" d="M385.9,333.6c0-0.6,0-1.3,0-2c1.3,0,2.1,0.7,2.1,2.1c-0.4,0-0.8,0.1-1.2,0.1
		C386.4,333.8,386.2,333.8,385.9,333.6z"/>
	<path class="st11" d="M386.7,333.8c0.4,0,0.8-0.1,1.2-0.1c-0.2,1.4,0.6,3.2-1.4,4C386.6,336.4,386.6,335,386.7,333.8z"/>
	<path class="st7" d="M61.9,354.2c0.7-1.1,1.3-2.2,2.1-3.3C64,352.6,64.2,354.2,61.9,354.2z"/>
	<path class="st12" d="M344.4,336c-0.9-0.8-1.9-1.5-2.8-2.4C343.2,333.7,344.7,333.8,344.4,336z"/>
	<path class="st12" d="M272.3,292.9c-0.7,0.2-1.4,0.5-2.2,0.7c-0.6,0-1.2,0-1.9,0c-0.1-0.3-0.1-0.5-0.1-0.8
		C269.6,292.9,271,292.9,272.3,292.9z"/>
	<path class="st12" d="M388,347c-0.7-0.9-1.4-2-2.3-2.9C387.9,344,388.1,345.5,388,347z"/>
	<path class="st12" d="M231.2,267.7c-0.7,1-1.4,2.1-2.1,3.1C229,269.2,229.1,267.8,231.2,267.7z"/>
	<path class="st7" d="M100.4,333.8c-0.9,1.2-0.3,2.7-0.4,4C98.8,336.4,98.3,334.9,100.4,333.8z"/>
	<path class="st11" d="M276.4,335.9c-0.7-0.7-1.3-1.3-2.1-2.1C275.8,333.8,277.8,333.2,276.4,335.9z"/>
	<path class="st11" d="M134.1,55.3c-1-0.4-1.8-1-2.1-2.2C133.5,53.1,134.2,53.8,134.1,55.3z"/>
	<path class="st11" d="M136.1,57.3c-1-0.4-1.8-1-2.1-2.1C135.5,55.2,136.2,55.9,136.1,57.3z"/>
	<path class="st12" d="M284.7,270.9c0.6,0.8,1.2,1.7,1.9,2.5C284.6,273.6,284.8,272.1,284.7,270.9z"/>
	<path class="st11" d="M132,53.2c-0.9-0.2-1.3-0.9-1.7-1.8C131.7,51.2,132,52.1,132,53.2z"/>
	<path class="st12" d="M103.2,338.8c-0.4,0.9-1.2,1.1-2.1,1.1c-0.1-0.3-0.1-0.5,0-0.8C101.8,339.1,102.5,338.9,103.2,338.8z"/>
	<path class="st12" d="M241.4,284.2c-0.4,0.5-0.8,1-1.2,1.5C239.7,284.5,240.5,284.3,241.4,284.2z"/>
	<path class="st7" d="M393,325.5c0.1,0.6,0.1,1.3,0.2,2C392.1,326.9,392.1,326.3,393,325.5z"/>
	<path class="st7" d="M283.8,333.7c-0.4,0.2-0.7,0.5-1.1,0.7c0,0-0.2-0.2-0.2-0.4C282.8,333.9,283.3,333.8,283.8,333.7L283.8,333.7z
		"/>
	<path class="st12" d="M65.6,242c-0.2-0.1-0.5-0.2-0.7-0.3C65.1,241.8,65.4,241.9,65.6,242C65.6,241.9,65.6,242,65.6,242z"/>
	<path class="st12" d="M384.9,339c0.3-0.2,0.6-0.2,0.9-0.1C385.6,339.6,385.3,339.7,384.9,339z"/>
	<path class="st7" d="M282.7,357.4c-0.1,0.1-0.1,0.3-0.2,0.4C282.6,357.7,282.6,357.5,282.7,357.4L282.7,357.4z"/>
	<path class="st8" d="M251.8,184.1c0.8,3.2-0.7,5.9-2.1,10.2c-1.9-8.1-3.6-14.9-6.9-20.9c-4.5-8.4-11.6-14.3-17.7-21.3
		c6.9,1.1,10.3,7,13.9,11.9c4,5.5,8.1,11.1,9.2,18.3C248.3,182.9,249.3,185.9,251.8,184.1z"/>
	<path class="st14" d="M213.6,150.1c2.4-0.4,4.4,0.5,6.1,2.1c7.3,6.9,15.7,12.7,19.7,22.8c1.2,3.1,3.5,6,4.8,9.5
		c1,2.6-2.1,5.6,1.1,7.6c0.2,0.1-0.5,1.1-1.2,1.2c-1.1,0.2-1.9-0.3-2.7-1c-4.7-4.4-9.1-9.4-12.6-14.8c-6.6-10.3-15.9-17.4-25.4-24.7
		c-4.2-3.2-9.4-4.2-13.9-6.7c-5.3-2.9-10.9-5-16.4-7.5c-1.5-0.7-3-0.6-4.4-0.7c-1.3-0.1-3.3,0.3-3.9-0.4c-3.9-4.7-9.6-2.5-14.2-3.9
		c-9.9-2.9-20.4-2.1-30-5.8c-0.3-0.1-0.7-0.2-1-0.1c-8.8,1.3-17-3-25.8-2.1c-1.8,0.2-3.2-0.4-4.8-1.2c-3-1.5-6-4.2-9.7-1
		c-0.6,0.5-2.2,0.5-3,0.1c-5-2.5-10-4.4-16.1-4.2c2.2-4.5,6.5-4.1,9.5-5.9c0.8-0.5,2.4-0.1,2.5-1.3c0.4-6.2,5.6-7.2,9.9-9.2
		c4.1-1.9,5.6-6.2,8.9-9c2.5-2.1,4.4-5.4,7.3-0.3c0.6,1.1,2.4,1.3,3.8,1.2c6.3-0.5,11.9,1.5,17.6,3.7c3.7,1.4,8-0.3,12,2.2
		c1.9,1.1,4.2,2,5.4,3.6c3.4,4.7,8.7,5.4,13.5,7c0.8,0.3,2,0.3,2.3,0.9c3.9,6.2,10.3,7.6,16.6,9.4c1.7,0.4,2.8,0.9,1.5,2.7
		c-3.3,4.7,1.5,4,2.8,3.3c6.2-3.6,10.2,1.2,14.5,3.6c7.2,3.9,13.9,8.8,20.8,13.1C211.2,145.4,213.2,147.1,213.6,150.1
		c-0.9,0.1-2.1-0.3-2.6,0.9c-0.1,0.2,0.4,0.8,0.8,0.9C213.2,152.1,213.5,151.1,213.6,150.1z M192.7,141.4c-0.3-0.6-0.9-1.4-2.1-1.4
		c-1,0-1.5,0.5-1.5,1.4c0.1,1.3,0.8,2.3,2.2,2.1C192.1,143.4,192.7,142.8,192.7,141.4z M217,158c0.9,1.7,2.1,2.6,4,1.9
		c0.2-0.1,0.4-1,0.2-1.2C220.2,157.1,218.8,157,217,158z"/>
	<path class="st7" d="M355.1,282.5c-0.4,1.1,1.1,3.5-2.2,3.2c-4.6-0.4-9.6-4.2-9.6-7.7c0.1-3.4,1.9-5.6,5.3-5.8
		C352.3,271.9,355.1,276.6,355.1,282.5z"/>
	<path class="st7" d="M310.6,271.5c1,0.6,2.8-0.6,3.1,1.4c-0.7,0.9-1.5,1.9-2.3,2.8l0,0c-0.6,0.7-1.2,1.5-1.9,2.3l0,0
		c-0.7,0.7-1.5,1.3-2.1,2.2c-2.3,3.7-4.2,3.5-6.5-0.1c-1.7-2.6-3.9-4.7-5.9-7.1c1-2.8,3.6-0.6,5.2-1.5
		C303.7,271.5,307.2,271.5,310.6,271.5z"/>
	<path class="st12" d="M256,285.8c3.1-3.5,5.6-6.2,8.1-9.1C267.1,285.2,266.1,286.5,256,285.8z"/>
	<path class="st10" d="M295,273c2,2.4,4.2,4.5,5.9,7.1c2.4,3.5,4.2,3.8,6.5,0.1c0.5-0.8,1.3-1.4,2.1-2.2c0.5,3-1.1,5-3.5,6.2
		c-2.7,1.3-4.4-0.7-6.2-2.3C297.2,279.6,294.5,277.2,295,273z"/>
	<path class="st10" d="M310.6,271.5c-3.4,0-6.9,0-10.3,0C303.7,268.2,307.2,269.7,310.6,271.5z"/>
	<path class="st10" d="M292.7,280.4c-1.5-1.1-2.7-2.7-3.6-4.4C291.5,276.5,293.7,277.2,292.7,280.4z"/>
	<path class="st10" d="M321.1,274c-0.8,1.5-1.9,3-3.3,3.9C317.7,275.6,317.8,273.5,321.1,274z"/>
	<path class="st10" d="M295,283.4c-1-0.8-2-1.8-2.3-3.1C295.3,280.1,295.1,281.7,295,283.4z"/>
	<path class="st10" d="M311.4,275.7c0.7-0.9,1.5-1.9,2.3-2.8C313.7,274.5,313.6,275.9,311.4,275.7z"/>
	<path class="st10" d="M309.6,278c0.6-0.7,1.2-1.5,1.9-2.3C311.6,277.2,311,277.9,309.6,278z"/>
	<path class="st1" d="M160.8,277.8c3.9-0.1,7.4,0.3,6.5,5.9c-0.4,2.3,1.3,2.8,3.2,2.6c6.6,2.4,8.3,1.2,9-6.1
		c3.5-0.6,1.8-3.4,2.2-5.4c0.3-1.5-0.8-4,1.1-4.5c2.7-0.6,5.1-3.9,7.9-2.1c2.4,1.4,0.9,4.3,1.1,6.6c0.2,2.6,0,5.1,0.1,7.6
		c0,1.4-0.4,3.2,1.7,3.7l0.3,0.1c2.8,3.1,5.8,3.1,8-0.2l0,0c2.8,0,2.2-2.1,2.3-3.6c0.1-5.7-0.1-11.3,0-17c0.1-4.8,4-7.3,8.6-5.9
		c1.8,0.6,1.8,1.9,1.8,3.3c0,8,0,16.1,0,24.2c0,2.4-0.8,3.6-3.3,3.4c-1.4-0.1-2.8,0.2-3,2.1c-3.1,0-6.2,0-9.3,0
		c-0.4-2.6-2.4-2.1-4-2.1c-19,0-38,0-57,0c-1.7,0-3.6-0.5-4,2.1c-2.1,0-4.1,0-6.2,0c-0.3-2.5-2.3-2.1-3.9-2.1c-4.2,0-8.4,0-12.6,0
		c0-0.7,0-1.3,0-2.1s-0.1-1.4-0.1-2.3H111c3.7-2.4,3-4.7,0.1-7.1c0-0.3,0.1-0.7,0.1-1c3.8-1.2,1.5-4.2,1.9-6.4l0,0
		c4.5-3,9.6-5.3,12.6-10.2l0,0c5-0.2,10.6-0.5,13.9,3.2c4.2,4.6,8,10.1,6.9,17.3c-0.3,1.7-0.8,4,2.1,4.3c2.3,2.1,4.4,0.3,6.6-0.1
		C157,283.2,158.2,280.1,160.8,277.8L160.8,277.8z M127.2,271.9c-0.4,0.2-0.8,0.5-1.2,0.7c-0.4,0.4-0.9,0.8-1.3,1.2
		c-0.6,0.1-1.8,0.1-1.9,0.5c-1.3,2.9-2,6.2,0.2,8.5c2.8,2.9,6.3,5.4,10.8,4.7c0.2,0,0.3-0.9,0.5-1.3l0.3-0.2l0.4,0.1
		c1.9-0.4,2.9-1.7,3.3-3.4c0.8-3.5-3.6-11.8-7-12.7C129.5,269.5,127.3,268.9,127.2,271.9L127.2,271.9z"/>
	<path class="st6" d="M200.3,230.6c8.1-1.1,13,0.8,15.2,6.2c2.2,5.3,0,11.5-5.1,14.1c-4.8,2.6-10.9,1.2-14.2-3.2
		c-3.4-4.5-2.8-11,1.4-15C198.5,232.1,199.4,231.4,200.3,230.6L200.3,230.6z"/>
	<path class="st6" d="M183.4,243.1c5,0.1,9,4.3,9,9.4c0,5.4-4.1,9.3-9.6,9.1c-5.1-0.2-8.8-4.2-8.7-9.5
		C174.2,247,178.4,243,183.4,243.1z"/>
	<path class="st9" d="M193.7,286c-2.2-0.5-1.7-2.3-1.7-3.7c-0.1-2.6,0.1-5.2-0.1-7.6c-0.2-2.3,1.2-5.2-1.1-6.6
		c-3-1.8-5.3,1.4-7.9,2.1c-2,0.5-0.8,3-1.1,4.5c-0.4,2,1.2,4.6-2.2,5.4c-1-11.5,0.1-12.8,14.2-16.1
		C193.7,271.4,193.7,278.7,193.7,286z"/>
	<path class="st9" d="M202.1,286c-2.3,3.3-5.3,3.3-8,0.2C196.7,286.1,199.4,286,202.1,286z"/>
	<path class="st6" d="M111.5,290.4c4.2,0,8.4,0,12.6,0c1.7,0,3.5-0.4,3.9,2.1c-8.3,0.1-16.4,0.1-24.7,0.2
		C105,288,108.9,291.4,111.5,290.4z"/>
	<path class="st6" d="M103.4,292.5c-0.5,2.8-0.3,5.8-2.1,8.4C102.1,298.1,98.8,294.4,103.4,292.5z"/>
	<path class="st6" d="M101.5,300.9c-0.1,1.8-0.8,3.2-2.2,4.3C99.4,303.5,98.1,301,101.5,300.9z"/>
	<path class="st6" d="M111.4,286c0,0.7,0.1,1.4,0.1,2.3c-1.4,0-3,0.1-3.1-2C109.4,286.3,110.4,286.1,111.4,286z"/>
	<path class="st7" d="M142.2,345.2c0,3.8-1,6.7-4.7,6.6c-4.1-0.1-5.2-3.5-5.1-6.9c0.1-3.2,1-6.4,5.2-6.2
		C142.2,338.9,142.2,342.4,142.2,345.2z"/>
	<path class="st12" d="M188.2,348c-0.2,2.5-1.1,4.2-3.9,4.3c-1.9,0.1-2.9-0.8-2.9-2.7c0.1-2.6,2-3.3,4.1-3.6
		C187.1,345.9,188.3,346,188.2,348z"/>
	<path class="st12" d="M108.3,352.4c-1.9-0.1-3.2-0.9-3-2.8c0.2-2.9,2.4-3.4,4.7-3.6c1.4-0.1,2.4,0.3,2.2,2
		C112.1,350.5,110.9,352.1,108.3,352.4z"/>
	<path class="st12" d="M109.4,340.9c0-0.9,0-1.9,0-2.9c1.2,0.2,2.4,0.7,2.1,2.2C111.3,341.3,110.2,341,109.4,340.9z"/>
	<path class="st9" d="M155,267.5c-0.7-6.3,0.7-9.3,5-10.2c2.9-0.6,5.5-0.1,7.3,2.3c2.7,3.3,1.8,6.6-0.3,9.9
		C162.3,272.6,158.4,271.9,155,267.5z"/>
	<path class="st10" d="M148.7,286.3c-2.9-0.4-2.4-2.7-2.1-4.3c1.1-7.2-2.7-12.7-6.9-17.3c-3.3-3.6-9-3.4-13.9-3.2
		c10-3.4,17.4,0.1,20.8,9.7C148.4,275.9,148.9,281.1,148.7,286.3z"/>
	<path class="st10" d="M125.8,261.4c-3,5-8,7.2-12.6,10.2C115.7,266,120.2,262.8,125.8,261.4z"/>
	<path class="st10" d="M160.8,277.8c-2.6,2.3-3.8,5.5-5.5,8.4C155.8,282.4,154.9,277.8,160.8,277.8z"/>
	<path class="st10" d="M113.2,271.6c-0.3,2.3,2,5.2-1.9,6.4c-0.1-0.7-0.1-1.3-0.2-2.1C111.8,274.4,111.9,272.7,113.2,271.6z"/>
	<path class="st6" d="M134.2,292.4c0.4-2.6,2.4-2.1,4-2.1c19,0,38,0,57,0c1.7,0,3.6-0.5,4,2.1C177.5,292.4,155.8,292.4,134.2,292.4z
		"/>
	<path class="st13" d="M408.6,338.9c-4.3-0.2-3-2.7-2.1-5.1c0.4,1.4-0.6,3.7,2.1,4l0,0C408.6,338.1,408.6,338.5,408.6,338.9z"/>
	<path class="st13" d="M409.1,346.1c0-1.3,0-2.7,0-4C409.9,343.3,409.9,344.6,409.1,346.1z"/>
	<path class="st13" d="M409.5,351.6c-0.2-0.2-0.4-0.3-0.6-0.4c0.1-0.6,0.2-1.2,0.3-1.8C409.7,349.9,409.7,350.7,409.5,351.6z"/>
	<path class="st13" d="M409,339.9c-0.1-0.3-0.3-0.7-0.4-1c0.2,0.2,0.4,0.4,0.6,0.6C409.3,339.5,409.1,339.7,409,339.9z"/>
	<path class="st7" d="M335.3,337.4c2.1,0.5,4.2,1.3,3.8,3.7c-0.3,1.9-2.6,0.6-3.8,1.3c-1,0-2.1,0-3.1,0c-0.3-0.1-0.6-0.3-1-0.4
		l-0.1-0.1c0-0.3-0.1-0.7-0.1-1C331.8,339,333.2,337.7,335.3,337.4z"/>
	<path class="st12" d="M324,340.9c0-1.1-0.3-2.5,1.3-3C324.9,339,324.4,340,324,340.9z"/>
	<path class="st13" d="M331,340.9c0,0.3,0.1,0.7,0.1,1C330.4,341.6,330.4,341.3,331,340.9z"/>
	<path class="st13" d="M331.2,342.1c0.3,0.1,0.6,0.3,1,0.4C331.6,343,331.3,342.7,331.2,342.1z"/>
	<path class="st9" d="M427.1,339c2.4-4,4.8-0.2,7.3-0.1c0.1,0.3,0.2,0.6,0.3,0.9c-2.3,0.4-4.5,0.8-6.8,1.3
		C427.1,340.6,427.2,339.8,427.1,339z"/>
	<path class="st10" d="M408.6,337.8c-2.7-0.3-1.7-2.6-2.1-4c0.1-0.3,0.3-0.4,0.6-0.4C408.8,334.5,408.6,336.2,408.6,337.8z"/>
	<path class="st11" d="M288,330c0.5,0,1,0.1,1.7,0.1C289,330.1,288.5,330.1,288,330z"/>
	<path class="st4" d="M394.2,356.4c0-5.9-0.1-11.8-0.1-17.5c5.4-1,7.1,1.3,6.4,6.4c-0.2,1.7-0.3,3.5,0,5.2
		C401.3,355.6,398.9,357.2,394.2,356.4z"/>
	<path class="st10" d="M111.4,279c3,2.4,3.7,4.7-0.1,7.1C111.7,283.8,110.5,281.4,111.4,279z"/>
	<path class="st2" d="M192.7,141.4c0,1.3-0.6,2-1.4,2.1c-1.4,0.2-2.2-0.7-2.2-2.1c0-0.9,0.5-1.5,1.5-1.4
		C191.7,140,192.3,140.7,192.7,141.4z"/>
	<path class="st2" d="M217,158c1.9-1,3.2-0.9,4.2,0.6c0.2,0.3,0,1.2-0.2,1.2C219.1,160.6,218,159.7,217,158z"/>
	<path class="st2" d="M213.6,150.1c-0.1,1-0.4,2.1-1.8,1.9c-0.3,0-0.8-0.7-0.8-0.9C211.6,149.8,212.7,150.2,213.6,150.1L213.6,150.1
		z"/>
	<path class="st7" d="M124.6,273.9c0.4-0.4,0.9-0.8,1.3-1.2c0.4-0.2,0.8-0.5,1.2-0.7l-0.1,0.1c6.7,0.8,8.9,4.8,7.8,14.1l-0.4-0.1
		l-0.3,0.2c-1.8-0.6-3.6-1-5.3-1.9C123.5,281.8,122.5,279.4,124.6,273.9z"/>
	<path class="st9" d="M134.9,286.1c1.1-9.3-1.1-13.3-7.8-14.1c0.2-3.1,2.5-2.5,4.1-2c3.4,0.9,7.7,9.2,7,12.7
		C137.8,284.5,136.7,285.6,134.9,286.1z"/>
	<path class="st9" d="M124.6,273.9c-2,5.6-1,7.9,4.3,10.5c1.7,0.8,3.5,1.2,5.3,1.9c-0.2,0.5-0.3,1.3-0.5,1.3
		c-4.5,0.6-8-1.9-10.8-4.7c-2.2-2.3-1.5-5.7-0.2-8.5C122.8,274,123.9,274,124.6,273.9z"/>
	<path class="st9" d="M127.2,271.9c-0.4,0.2-0.8,0.5-1.2,0.7C126.3,272.4,126.8,272.1,127.2,271.9z"/>
</g>
</svg>
